<mxfile host="app.diagrams.net" modified="2024-01-19T13:29:00.683Z" agent="Mozilla/5.0 (Windows NT 10.0; Win64; x64; rv:121.0) Gecko/20100101 Firefox/121.0" etag="417JcNsLZoFlVPfl2fbC" version="22.1.16" type="github">
  <diagram name="Page-1" id="ImxAfaow_QXyQBpGd_pP">
    <mxGraphModel dx="2261" dy="754" grid="1" gridSize="10" guides="1" tooltips="1" connect="1" arrows="1" fold="1" page="1" pageScale="1" pageWidth="827" pageHeight="1169" math="0" shadow="0">
      <root>
        <mxCell id="0" />
        <mxCell id="1" parent="0" />
        <mxCell id="kvW7x50fLo4E_DqDTmqZ-3" value="" style="edgeStyle=orthogonalEdgeStyle;rounded=0;orthogonalLoop=1;jettySize=auto;html=1;fillColor=#f8cecc;strokeColor=#b85450;" parent="1" source="kvW7x50fLo4E_DqDTmqZ-1" target="kvW7x50fLo4E_DqDTmqZ-2" edge="1">
          <mxGeometry relative="1" as="geometry" />
        </mxCell>
        <mxCell id="kvW7x50fLo4E_DqDTmqZ-1" value="RFP-1373" style="ellipse;whiteSpace=wrap;html=1;aspect=fixed;fillColor=#e1d5e7;strokeColor=#9673a6;fontFamily=Lucida Console;" parent="1" vertex="1">
          <mxGeometry x="370" y="350" width="80" height="80" as="geometry" />
        </mxCell>
        <mxCell id="kvW7x50fLo4E_DqDTmqZ-5" value="" style="edgeStyle=orthogonalEdgeStyle;rounded=0;orthogonalLoop=1;jettySize=auto;html=1;fillColor=#f8cecc;strokeColor=#b85450;" parent="1" source="kvW7x50fLo4E_DqDTmqZ-2" target="kvW7x50fLo4E_DqDTmqZ-4" edge="1">
          <mxGeometry relative="1" as="geometry" />
        </mxCell>
        <mxCell id="kvW7x50fLo4E_DqDTmqZ-2" value="Check how merge of pre-sales working" style="whiteSpace=wrap;html=1;fontFamily=Lucida Console;fillColor=#f8cecc;strokeColor=#b85450;" parent="1" vertex="1">
          <mxGeometry x="190" y="360" width="120" height="60" as="geometry" />
        </mxCell>
        <mxCell id="kvW7x50fLo4E_DqDTmqZ-7" value="" style="edgeStyle=orthogonalEdgeStyle;rounded=0;orthogonalLoop=1;jettySize=auto;html=1;fillColor=#f8cecc;strokeColor=#b85450;" parent="1" source="kvW7x50fLo4E_DqDTmqZ-4" target="kvW7x50fLo4E_DqDTmqZ-6" edge="1">
          <mxGeometry relative="1" as="geometry" />
        </mxCell>
        <mxCell id="kvW7x50fLo4E_DqDTmqZ-9" value="" style="edgeStyle=orthogonalEdgeStyle;rounded=0;orthogonalLoop=1;jettySize=auto;html=1;fillColor=#f8cecc;strokeColor=#b85450;" parent="1" source="kvW7x50fLo4E_DqDTmqZ-4" target="kvW7x50fLo4E_DqDTmqZ-8" edge="1">
          <mxGeometry relative="1" as="geometry" />
        </mxCell>
        <mxCell id="kvW7x50fLo4E_DqDTmqZ-4" value="Don&#39;t let pre-sales with different payments methods merge, only let merge if a simple pre-sale with different payment methods" style="whiteSpace=wrap;html=1;fontFamily=Lucida Console;fillColor=#f8cecc;strokeColor=#b85450;" parent="1" vertex="1">
          <mxGeometry x="190" y="170" width="120" height="130" as="geometry" />
        </mxCell>
        <mxCell id="kvW7x50fLo4E_DqDTmqZ-6" value="Don&#39;t let pre-sales merge with more than 1 different PBM" style="whiteSpace=wrap;html=1;fontFamily=Lucida Console;fillColor=#f8cecc;strokeColor=#b85450;" parent="1" vertex="1">
          <mxGeometry x="390" y="200" width="120" height="75" as="geometry" />
        </mxCell>
        <mxCell id="QppGUUmqxxTd2zURWtjB-2" value="" style="edgeStyle=orthogonalEdgeStyle;rounded=0;orthogonalLoop=1;jettySize=auto;html=1;fillColor=#f8cecc;strokeColor=#b85450;" edge="1" parent="1" source="kvW7x50fLo4E_DqDTmqZ-8" target="QppGUUmqxxTd2zURWtjB-1">
          <mxGeometry relative="1" as="geometry" />
        </mxCell>
        <mxCell id="QppGUUmqxxTd2zURWtjB-6" value="" style="edgeStyle=orthogonalEdgeStyle;rounded=0;orthogonalLoop=1;jettySize=auto;html=1;fillColor=#f8cecc;strokeColor=#b85450;" edge="1" parent="1" source="kvW7x50fLo4E_DqDTmqZ-8" target="QppGUUmqxxTd2zURWtjB-5">
          <mxGeometry relative="1" as="geometry" />
        </mxCell>
        <mxCell id="QppGUUmqxxTd2zURWtjB-8" value="" style="edgeStyle=orthogonalEdgeStyle;rounded=0;orthogonalLoop=1;jettySize=auto;html=1;fillColor=#f8cecc;strokeColor=#b85450;" edge="1" parent="1" source="kvW7x50fLo4E_DqDTmqZ-8" target="QppGUUmqxxTd2zURWtjB-7">
          <mxGeometry relative="1" as="geometry" />
        </mxCell>
        <mxCell id="kvW7x50fLo4E_DqDTmqZ-8" value="Only merge delivery pre-sales if they have the same payment method" style="whiteSpace=wrap;html=1;fontFamily=Lucida Console;fillColor=#f8cecc;strokeColor=#b85450;" parent="1" vertex="1">
          <mxGeometry x="-10" y="180" width="120" height="110" as="geometry" />
        </mxCell>
        <mxCell id="QppGUUmqxxTd2zURWtjB-1" value="When logged as clerk and try to merge pre-sales, need to create a new pre-sales with all the items" style="whiteSpace=wrap;html=1;fontFamily=Lucida Console;fillColor=#f8cecc;strokeColor=#b85450;" vertex="1" parent="1">
          <mxGeometry x="-30" width="160" height="100" as="geometry" />
        </mxCell>
        <mxCell id="QppGUUmqxxTd2zURWtjB-5" value="On formPreVenda need has been implemented to type multiple pre-sales numbers like on &quot;81-80&quot; this way you can pick mutliple pre-sales directly from formPreVenda" style="whiteSpace=wrap;html=1;fontFamily=Lucida Console;fillColor=#f8cecc;strokeColor=#b85450;" vertex="1" parent="1">
          <mxGeometry x="-290" y="180" width="200" height="110" as="geometry" />
        </mxCell>
        <mxCell id="QppGUUmqxxTd2zURWtjB-7" value="On delivery receipt has been implemented to get all items from pre-sales and show the correct values on receipt" style="whiteSpace=wrap;html=1;fontFamily=Lucida Console;fillColor=#f8cecc;strokeColor=#b85450;" vertex="1" parent="1">
          <mxGeometry x="-60" y="380" width="220" height="75" as="geometry" />
        </mxCell>
      </root>
    </mxGraphModel>
  </diagram>
</mxfile>
